<mxfile host="app.diagrams.net" agent="Mozilla/5.0 (Macintosh; Intel Mac OS X 10_15_7) AppleWebKit/605.1.15 (KHTML, like Gecko) Version/16.6 Safari/605.1.15" version="25.0.3">
  <diagram name="Page-1" id="2YBvvXClWsGukQMizWep">
    <mxGraphModel dx="708" dy="1577" grid="1" gridSize="10" guides="1" tooltips="1" connect="1" arrows="1" fold="1" page="1" pageScale="1" pageWidth="850" pageHeight="1100" math="0" shadow="0">
      <root>
        <mxCell id="0" />
        <mxCell id="1" parent="0" />
        <mxCell id="CObYJEAy56xA2G8EUnc1-1" value="S&amp;amp;C" style="shape=umlLifeline;perimeter=lifelinePerimeter;whiteSpace=wrap;html=1;container=1;dropTarget=0;collapsible=0;recursiveResize=0;outlineConnect=0;portConstraint=eastwest;newEdgeStyle={&quot;edgeStyle&quot;:&quot;elbowEdgeStyle&quot;,&quot;elbow&quot;:&quot;vertical&quot;,&quot;curved&quot;:0,&quot;rounded&quot;:0};" parent="1" vertex="1">
          <mxGeometry x="320" width="100" height="470" as="geometry" />
        </mxCell>
        <mxCell id="CObYJEAy56xA2G8EUnc1-6" value="" style="shape=umlLifeline;perimeter=lifelinePerimeter;whiteSpace=wrap;html=1;container=1;dropTarget=0;collapsible=0;recursiveResize=0;outlineConnect=0;portConstraint=eastwest;newEdgeStyle={&quot;curved&quot;:0,&quot;rounded&quot;:0};participant=umlActor;" parent="1" vertex="1">
          <mxGeometry x="145" width="20" height="470" as="geometry" />
        </mxCell>
        <mxCell id="CObYJEAy56xA2G8EUnc1-7" value="Company" style="text;html=1;align=center;verticalAlign=middle;resizable=0;points=[];autosize=1;strokeColor=none;fillColor=none;" parent="1" vertex="1">
          <mxGeometry x="85" y="10" width="70" height="30" as="geometry" />
        </mxCell>
        <mxCell id="CObYJEAy56xA2G8EUnc1-8" value="" style="edgeStyle=elbowEdgeStyle;fontSize=12;html=1;endArrow=blockThin;endFill=1;rounded=0;" parent="1" edge="1">
          <mxGeometry width="160" relative="1" as="geometry">
            <mxPoint x="154.81034482758616" y="79" as="sourcePoint" />
            <mxPoint x="369.5" y="79" as="targetPoint" />
            <Array as="points">
              <mxPoint x="270" y="79" />
            </Array>
          </mxGeometry>
        </mxCell>
        <mxCell id="CObYJEAy56xA2G8EUnc1-9" value="requestApplicationList(internship)" style="text;html=1;align=center;verticalAlign=middle;resizable=0;points=[];autosize=1;strokeColor=none;fillColor=none;" parent="1" vertex="1">
          <mxGeometry x="161" y="54" width="200" height="30" as="geometry" />
        </mxCell>
        <mxCell id="CObYJEAy56xA2G8EUnc1-15" value="&lt;b&gt;SD&lt;/b&gt;&amp;nbsp;Application Acceptance or Rejection" style="shape=umlFrame;whiteSpace=wrap;html=1;pointerEvents=0;width=240;height=30;" parent="1" vertex="1">
          <mxGeometry x="60" y="-40" width="440" height="552" as="geometry" />
        </mxCell>
        <mxCell id="CObYJEAy56xA2G8EUnc1-17" value="" style="endArrow=none;dashed=1;html=1;rounded=0;exitX=0.014;exitY=0.49;exitDx=0;exitDy=0;exitPerimeter=0;entryX=0.994;entryY=0.495;entryDx=0;entryDy=0;entryPerimeter=0;" parent="1" edge="1">
          <mxGeometry width="50" height="50" relative="1" as="geometry">
            <mxPoint x="107.19999999999996" y="335" as="sourcePoint" />
            <mxPoint x="459.9999999999999" y="336" as="targetPoint" />
          </mxGeometry>
        </mxCell>
        <mxCell id="CObYJEAy56xA2G8EUnc1-19" value="else" style="text;html=1;align=center;verticalAlign=middle;resizable=0;points=[];autosize=1;strokeColor=none;fillColor=none;" parent="1" vertex="1">
          <mxGeometry x="95" y="309" width="50" height="30" as="geometry" />
        </mxCell>
        <mxCell id="CObYJEAy56xA2G8EUnc1-23" value="redirectToApplicationListPage(internship)" style="html=1;verticalAlign=bottom;endArrow=open;dashed=1;endSize=8;curved=0;rounded=0;" parent="1" source="CObYJEAy56xA2G8EUnc1-1" target="CObYJEAy56xA2G8EUnc1-6" edge="1">
          <mxGeometry x="-0.0028" relative="1" as="geometry">
            <mxPoint x="369.5" y="360" as="sourcePoint" />
            <mxPoint x="190" y="360" as="targetPoint" />
            <mxPoint as="offset" />
            <Array as="points">
              <mxPoint x="260" y="310" />
            </Array>
          </mxGeometry>
        </mxCell>
        <mxCell id="CObYJEAy56xA2G8EUnc1-24" value="redirectToApplicationListPage(internship)" style="html=1;verticalAlign=bottom;endArrow=open;dashed=1;endSize=8;curved=0;rounded=0;" parent="1" edge="1">
          <mxGeometry x="-0.0028" relative="1" as="geometry">
            <mxPoint x="369.75" y="448" as="sourcePoint" />
            <mxPoint x="154.70000000000005" y="448" as="targetPoint" />
            <mxPoint as="offset" />
          </mxGeometry>
        </mxCell>
        <mxCell id="HJIBpvxVfIBrpGYPyr1l-3" value="redirectToApplicationListPage(internship)" style="html=1;verticalAlign=bottom;endArrow=open;dashed=1;endSize=8;curved=0;rounded=0;" parent="1" edge="1">
          <mxGeometry relative="1" as="geometry">
            <mxPoint x="370" y="112" as="sourcePoint" />
            <mxPoint x="154.81034482758616" y="112.00000000000023" as="targetPoint" />
            <Array as="points">
              <mxPoint x="280.5" y="112" />
            </Array>
          </mxGeometry>
        </mxCell>
        <mxCell id="HJIBpvxVfIBrpGYPyr1l-12" value="" style="html=1;points=[[0,0,0,0,5],[0,1,0,0,-5],[1,0,0,0,5],[1,1,0,0,-5]];perimeter=orthogonalPerimeter;outlineConnect=0;targetShapes=umlLifeline;portConstraint=eastwest;newEdgeStyle={&quot;curved&quot;:0,&quot;rounded&quot;:0};" parent="1" vertex="1">
          <mxGeometry x="365" y="269" width="10" height="40" as="geometry" />
        </mxCell>
        <mxCell id="CObYJEAy56xA2G8EUnc1-14" value="alternative" style="shape=umlFrame;whiteSpace=wrap;html=1;pointerEvents=0;width=80;height=30;" parent="1" vertex="1">
          <mxGeometry x="100" y="192" width="360" height="310" as="geometry" />
        </mxCell>
        <mxCell id="HJIBpvxVfIBrpGYPyr1l-22" value="" style="edgeStyle=elbowEdgeStyle;fontSize=12;html=1;endArrow=blockThin;endFill=1;rounded=0;elbow=vertical;" parent="1" edge="1">
          <mxGeometry width="160" relative="1" as="geometry">
            <mxPoint x="155" y="244" as="sourcePoint" />
            <mxPoint x="369" y="244" as="targetPoint" />
          </mxGeometry>
        </mxCell>
        <mxCell id="HJIBpvxVfIBrpGYPyr1l-23" value="acceptApplication(applicationData)" style="text;html=1;align=center;verticalAlign=middle;resizable=0;points=[];autosize=1;strokeColor=none;fillColor=none;" parent="1" vertex="1">
          <mxGeometry x="155" y="220" width="210" height="30" as="geometry" />
        </mxCell>
        <mxCell id="HJIBpvxVfIBrpGYPyr1l-25" value="rejectApplication(applicationData)" style="text;html=1;align=center;verticalAlign=middle;resizable=0;points=[];autosize=1;strokeColor=none;fillColor=none;" parent="1" vertex="1">
          <mxGeometry x="164" y="336" width="200" height="30" as="geometry" />
        </mxCell>
        <mxCell id="HJIBpvxVfIBrpGYPyr1l-30" value="" style="edgeStyle=elbowEdgeStyle;fontSize=12;html=1;endArrow=blockThin;endFill=1;rounded=0;exitX=0.458;exitY=0.744;exitDx=0;exitDy=0;exitPerimeter=0;" parent="1" edge="1">
          <mxGeometry width="160" relative="1" as="geometry">
            <mxPoint x="154.15999999999997" y="359.68000000000006" as="sourcePoint" />
            <mxPoint x="369" y="360" as="targetPoint" />
          </mxGeometry>
        </mxCell>
        <mxCell id="HJIBpvxVfIBrpGYPyr1l-32" value="" style="html=1;points=[[0,0,0,0,5],[0,1,0,0,-5],[1,0,0,0,5],[1,1,0,0,-5]];perimeter=orthogonalPerimeter;outlineConnect=0;targetShapes=umlLifeline;portConstraint=eastwest;newEdgeStyle={&quot;curved&quot;:0,&quot;rounded&quot;:0};" parent="1" vertex="1">
          <mxGeometry x="365" y="390" width="10" height="40" as="geometry" />
        </mxCell>
        <mxCell id="HJIBpvxVfIBrpGYPyr1l-33" value="writeToDb(applicationData)" style="html=1;align=left;spacingLeft=2;endArrow=block;rounded=0;edgeStyle=orthogonalEdgeStyle;curved=0;rounded=0;" parent="1" target="HJIBpvxVfIBrpGYPyr1l-32" edge="1">
          <mxGeometry x="-1" y="-51" relative="1" as="geometry">
            <mxPoint x="370" y="370" as="sourcePoint" />
            <Array as="points">
              <mxPoint x="400" y="400" />
            </Array>
            <mxPoint x="-50" y="-41" as="offset" />
          </mxGeometry>
        </mxCell>
        <mxCell id="oy9VlT_TgJMNxeApYbx_-1" value="writeToDb(applicationData)" style="html=1;align=left;spacingLeft=2;endArrow=block;rounded=0;edgeStyle=orthogonalEdgeStyle;curved=0;rounded=0;" edge="1" parent="1">
          <mxGeometry x="-1" y="-51" relative="1" as="geometry">
            <mxPoint x="370" y="265" as="sourcePoint" />
            <Array as="points">
              <mxPoint x="400" y="295" />
            </Array>
            <mxPoint x="-50" y="-41" as="offset" />
            <mxPoint x="375" y="295" as="targetPoint" />
          </mxGeometry>
        </mxCell>
        <mxCell id="oy9VlT_TgJMNxeApYbx_-3" value="&lt;span style=&quot;caret-color: rgb(0, 0, 0); color: rgb(0, 0, 0); font-family: Helvetica; font-size: 11px; font-style: normal; font-variant-caps: normal; font-weight: 400; letter-spacing: normal; orphans: auto; text-align: center; text-indent: 0px; text-transform: none; white-space: nowrap; widows: auto; word-spacing: 0px; -webkit-text-stroke-width: 0px; background-color: rgb(255, 255, 255); text-decoration: none; display: inline !important; float: none;&quot;&gt;requestApplicationPage(applicationData)&lt;/span&gt;" style="text;whiteSpace=wrap;html=1;" vertex="1" parent="1">
          <mxGeometry x="160" y="121" width="230" height="40" as="geometry" />
        </mxCell>
        <mxCell id="oy9VlT_TgJMNxeApYbx_-4" value="" style="edgeStyle=elbowEdgeStyle;fontSize=12;html=1;endArrow=blockThin;endFill=1;rounded=0;" edge="1" parent="1">
          <mxGeometry width="160" relative="1" as="geometry">
            <mxPoint x="155.81034482758616" y="146" as="sourcePoint" />
            <mxPoint x="370.5" y="146" as="targetPoint" />
            <Array as="points">
              <mxPoint x="271" y="146" />
            </Array>
          </mxGeometry>
        </mxCell>
        <mxCell id="oy9VlT_TgJMNxeApYbx_-6" value="redirectToApplicationPage(applicationData)" style="html=1;verticalAlign=bottom;endArrow=open;dashed=1;endSize=8;curved=0;rounded=0;" edge="1" parent="1">
          <mxGeometry relative="1" as="geometry">
            <mxPoint x="369.5" y="176.00000000000023" as="sourcePoint" />
            <mxPoint x="154" y="176" as="targetPoint" />
          </mxGeometry>
        </mxCell>
      </root>
    </mxGraphModel>
  </diagram>
</mxfile>
